<svg width="50" height="37" viewBox="0 0 50 37" fill="none" xmlns="http://www.w3.org/2000/svg">
<path d="M0.000116726 18.0021C0.0161167 18.6162 0.200817 18.9864 0.437617 19.2521L13.4376 35.2521C14.0517 36.1179 15.4432 36.2549 16.3132 35.5518C17.1832 34.8488 17.2294 33.5344 16.5314 32.7521L6.18762 20.0021H48.0002C49.1048 20.0021 50.0002 19.1067 50.0002 18.0021C50.0002 16.8975 49.1048 16.0021 48.0002 16.0021H6.18762L16.5314 3.25213C17.3232 2.46203 17.0982 1.07621 16.2624 0.332815C15.6191 -0.239486 13.9044 -0.057074 13.4376 0.752126L0.437617 16.7521C0.0991167 17.1665 -0.00398327 17.4746 0.000116726 18.0021V18.0021Z" fill="white"/>
</svg>
